# xmcd
#
# Track frame offsets:
#	150
#	13964
#	32711
#
# Disc length: 685 seconds
# Revision: 0
# Processed by: cddbd v1.5.2PL0 Copyright (c) Steve Scherf et al.
# Submitted via: dBpowerAMP V12.0
#
DISCID=1e02ab03
DTITLE=Starsailor - All the Plans
DYEAR=2009
DGENRE=Pop
TTITLE0=All the Plans (radio edit)
TTITLE1=All the Plans (album version)
TTITLE2=All the Plans (instrumental)
EXTD=
EXTT0=
EXTT1=
EXTT2=
PLAYORDER=
